<?xml version="1.0" encoding="UTF-8"?>
<svg width="80px" height="80px" viewBox="0 0 80 80" version="1.1" xmlns="http://www.w3.org/2000/svg" xmlns:xlink="http://www.w3.org/1999/xlink">
    <!-- Generator: Sketch 47.1 (45422) - http://www.bohemiancoding.com/sketch -->
    <title>icon_fastinternet</title>
    <desc>Created with Sketch.</desc>
    <defs></defs>
    <g id="171027---1st-white" stroke="none" stroke-width="1" fill="none" fill-rule="evenodd">
        <g id="icon_fastinternet" fill-rule="nonzero" fill="#FFFFFF">
            <g id="Group" transform="translate(0.000000, 7.000000)">
                <g id="icons8-speedometer">
                    <path d="M40,0 C17.94271,0 0,17.94271 0,40 C0,49.6484367 3.45052,58.5026033 9.16666667,65.4166667 L10.1041667,66.6666667 L69.8958333,66.6666667 L70.8333333,65.4166667 C76.54948,58.5026033 80,49.6484367 80,40 C80,17.94271 62.0572933,0 40,0 Z M40,6.66666667 C58.45052,6.66666667 73.3333333,21.54948 73.3333333,40 C73.3333333,47.5520833 70.6901033,54.4140633 66.4583333,60 L13.5416667,60 C9.30989667,54.4140633 6.66666667,47.5520833 6.66666667,40 C6.66666667,21.54948 21.54948,6.66666667 40,6.66666667 Z M40,10 C38.1640633,10 36.6666667,11.4973967 36.6666667,13.3333333 C36.6666667,15.16927 38.1640633,16.6666667 40,16.6666667 C41.8359367,16.6666667 43.3333333,15.16927 43.3333333,13.3333333 C43.3333333,11.4973967 41.8359367,10 40,10 Z M26.6666667,13.5416667 C24.83073,13.5416667 23.3333333,15.0390633 23.3333333,16.875 C23.3333333,18.7109367 24.83073,20.2083333 26.6666667,20.2083333 C28.5026033,20.2083333 30,18.7109367 30,16.875 C30,15.0390633 28.5026033,13.5416667 26.6666667,13.5416667 Z M53.3333333,13.5416667 C51.4973967,13.5416667 50,15.0390633 50,16.875 C50,18.7109367 51.4973967,20.2083333 53.3333333,20.2083333 C55.16927,20.2083333 56.6666667,18.7109367 56.6666667,16.875 C56.6666667,15.0390633 55.16927,13.5416667 53.3333333,13.5416667 Z M16.875,23.3333333 C15.0390633,23.3333333 13.5416667,24.83073 13.5416667,26.6666667 C13.5416667,28.5026033 15.0390633,30 16.875,30 C18.7109367,30 20.2083333,28.5026033 20.2083333,26.6666667 C20.2083333,24.83073 18.7109367,23.3333333 16.875,23.3333333 Z M62.1875,23.4375 L43.3333333,34.2708333 C42.35677,33.6979167 41.2109367,33.3333333 40,33.3333333 C36.3151033,33.3333333 33.3333333,36.3151033 33.3333333,40 C33.3333333,43.6848967 36.3151033,46.6666667 40,46.6666667 C43.6458333,46.6666667 46.6145833,43.73698 46.6666667,40.1041667 C46.6666667,40.0651033 46.6666667,40.0390633 46.6666667,40 L65.5208333,29.2708333 L62.1875,23.4375 Z M13.3333333,36.6666667 C11.4973967,36.6666667 10,38.1640633 10,40 C10,41.8359367 11.4973967,43.3333333 13.3333333,43.3333333 C15.16927,43.3333333 16.6666667,41.8359367 16.6666667,40 C16.6666667,38.1640633 15.16927,36.6666667 13.3333333,36.6666667 Z M66.6666667,36.6666667 C64.83073,36.6666667 63.3333333,38.1640633 63.3333333,40 C63.3333333,41.8359367 64.83073,43.3333333 66.6666667,43.3333333 C68.5026033,43.3333333 70,41.8359367 70,40 C70,38.1640633 68.5026033,36.6666667 66.6666667,36.6666667 Z M16.875,50 C15.0390633,50 13.5416667,51.4973967 13.5416667,53.3333333 C13.5416667,55.16927 15.0390633,56.6666667 16.875,56.6666667 C18.7109367,56.6666667 20.2083333,55.16927 20.2083333,53.3333333 C20.2083333,51.4973967 18.7109367,50 16.875,50 Z M63.125,50 C61.2890633,50 59.7916667,51.4973967 59.7916667,53.3333333 C59.7916667,55.16927 61.2890633,56.6666667 63.125,56.6666667 C64.9609367,56.6666667 66.4583333,55.16927 66.4583333,53.3333333 C66.4583333,51.4973967 64.9609367,50 63.125,50 Z" id="Shape"></path>
                </g>
            </g>
        </g>
    </g>
</svg>