<?xml version="1.0" encoding="utf-8"?>
<!-- Generator: Adobe Illustrator 16.0.4, SVG Export Plug-In . SVG Version: 6.00 Build 0)  -->
<!DOCTYPE svg PUBLIC "-//W3C//DTD SVG 1.1//EN" "http://www.w3.org/Graphics/SVG/1.1/DTD/svg11.dtd">
<svg version="1.1" id="Layer_1" xmlns="http://www.w3.org/2000/svg" xmlns:xlink="http://www.w3.org/1999/xlink" x="0px" y="0px"
	 width="80px" height="80px" viewBox="0 0 80 80" enable-background="new 0 0 80 80" xml:space="preserve">
<title>icon_savings</title>
<desc>Created with Sketch.</desc>
<g id="_x31_71027---1st-white">
	<g id="icon_savings">
		<g id="Group" transform="translate(2.000000, 0.000000)">
			<g id="icons8-money_bag_euro">
				<path id="Shape" fill="#FFFFFF" d="M38.4,0c-9.6,0-17.3,3.5-17.3,3.5L18,4.8l1.5,3l5.1,10.1C17.775,21.925,0,34.25,0,54.4
					C0,63.85,3.062,71.025,9.7,75c6.637,3.975,15.938,5,28.7,5s22.063-1.025,28.7-5c6.638-3.975,9.7-11.15,9.7-20.6
					c0-13.15-7.675-23-14.899-29.4c6.225,2.525,9.3,6,9.3,6l4.8-4.4c0,0-8.162-8.625-23-10.3l4.3-8.5l1.5-3l-3.1-1.3
					C55.7,3.5,48,0,38.4,0z M38.4,6.4c5.038,0,8.85,0.938,11.5,1.8L46,16H30.8l-3.9-7.8C29.55,7.337,33.362,6.4,38.4,6.4z
					 M29.8,22.4H47c0.787,0.413,23.4,12.337,23.4,32c0,8.225-1.913,12.287-6.601,15.1s-13.037,4.1-25.4,4.1
					c-12.362,0-20.712-1.287-25.4-4.1s-6.6-6.875-6.6-15.1C6.4,34.737,29.013,22.812,29.8,22.4z"/>
			</g>
			<g enable-background="new    ">
				<path fill="#FFFFFF" d="M24.412,50.22V57h-3.228V39.648h5.292c1.176,0,2.186,0.122,3.03,0.365
					c0.844,0.244,1.536,0.587,2.076,1.026c0.54,0.44,0.938,0.966,1.194,1.578s0.384,1.286,0.384,2.021
					c0,0.584-0.086,1.137-0.258,1.656c-0.172,0.521-0.42,0.992-0.744,1.416c-0.324,0.424-0.724,0.796-1.2,1.116
					c-0.476,0.32-1.018,0.576-1.626,0.768c0.408,0.232,0.76,0.564,1.056,0.996L34.732,57h-2.916c-0.552,0-0.952-0.216-1.2-0.648
					l-3.648-5.556c-0.136-0.208-0.286-0.355-0.45-0.444c-0.164-0.088-0.406-0.132-0.726-0.132H24.412z M24.412,47.904h2.016
					c0.608,0,1.138-0.076,1.59-0.229c0.452-0.151,0.824-0.361,1.116-0.63c0.292-0.268,0.51-0.586,0.654-0.954
					c0.144-0.367,0.216-0.771,0.216-1.212c0-0.88-0.29-1.556-0.87-2.028c-0.58-0.472-1.466-0.708-2.658-0.708h-2.064V47.904z"/>
				<path fill="#FFFFFF" d="M45.705,50.598c0.116,0.276,0.23,0.555,0.342,0.834c0.113-0.296,0.229-0.582,0.349-0.857
					c0.12-0.276,0.248-0.542,0.384-0.798l5.125-9.612c0.063-0.12,0.131-0.216,0.203-0.288s0.15-0.124,0.234-0.156
					c0.084-0.031,0.178-0.052,0.281-0.06c0.104-0.008,0.229-0.012,0.373-0.012h2.436V57h-2.844V45.792
					c0-0.208,0.006-0.436,0.018-0.684s0.03-0.5,0.055-0.757l-5.244,9.841c-0.248,0.472-0.629,0.708-1.141,0.708H45.82
					c-0.513,0-0.893-0.236-1.141-0.708l-5.305-9.876c0.024,0.264,0.045,0.521,0.061,0.773s0.023,0.486,0.023,0.702V57h-2.843V39.648
					h2.436c0.144,0,0.268,0.004,0.372,0.012c0.104,0.008,0.197,0.028,0.281,0.06c0.084,0.032,0.16,0.084,0.229,0.156
					s0.134,0.168,0.198,0.288l5.196,9.636C45.463,50.056,45.59,50.322,45.705,50.598z"/>
			</g>
		</g>
	</g>
</g>
</svg>
