<?xml version="1.0" encoding="UTF-8"?>
<svg width="80px" height="80px" viewBox="0 0 80 80" version="1.1" xmlns="http://www.w3.org/2000/svg" xmlns:xlink="http://www.w3.org/1999/xlink">
    <!-- Generator: Sketch 47.1 (45422) - http://www.bohemiancoding.com/sketch -->
    <title>icon_4g</title>
    <desc>Created with Sketch.</desc>
    <defs></defs>
    <g id="171027---1st-white" stroke="none" stroke-width="1" fill="none" fill-rule="evenodd">
        <g id="icon_4g" fill="#FFFFFF">
            <g id="Group" transform="translate(3.000000, 1.000000)">
                <path d="M29.3390769,61.2758901 L32.9390769,61.2758901 L32.9390769,65.4518901 C32.9390769,65.8198919 32.8150782,66.1398887 32.5670769,66.4118901 C32.3190757,66.6838915 31.9630792,66.8198901 31.4990769,66.8198901 L29.3390769,66.8198901 L29.3390769,74.8598901 L22.8590769,74.8598901 L22.8590769,66.8198901 L8.79507692,66.8198901 C8.3310746,66.8198901 7.9110788,66.6758915 7.53507692,66.3878901 C7.15907504,66.0998887 6.9230774,65.7398923 6.82707692,65.3078901 L6.05907692,61.6358901 L22.2350769,39.8918901 L29.3390769,39.8918901 L29.3390769,61.2758901 Z M22.8590769,52.1558901 C22.8590769,51.5958873 22.8790767,50.9918933 22.9190769,50.3438901 C22.9590771,49.6958869 23.0190765,49.0278935 23.0990769,48.3398901 L13.8590769,61.2758901 L22.8590769,61.2758901 L22.8590769,52.1558901 Z M53.0990769,69.0038901 C54.2190825,69.0038901 55.2110726,68.9078911 56.0750769,68.7158901 C56.9390812,68.5238891 57.7550731,68.2678917 58.5230769,67.9478901 L58.5230769,62.6438901 L55.0670769,62.6438901 C54.5550744,62.6438901 54.1550784,62.5078915 53.8670769,62.2358901 C53.5790755,61.9638887 53.4350769,61.6198922 53.4350769,61.2038901 L53.4350769,56.7398901 L65.8670769,56.7398901 L65.8670769,71.4998901 C64.9710724,72.1558934 64.0390818,72.7198877 63.0710769,73.1918901 C62.1030721,73.6638925 61.0710824,74.0518886 59.9750769,74.3558901 C58.8790714,74.6598916 57.7110831,74.8838894 56.4710769,75.0278901 C55.2310707,75.1718908 53.899084,75.2438901 52.4750769,75.2438901 C49.9150641,75.2438901 47.5470878,74.7918946 45.3710769,73.8878901 C43.195066,72.9838856 41.3110849,71.7358981 39.7190769,70.1438901 C38.127069,68.5518821 36.8790814,66.663901 35.9750769,64.4798901 C35.0710724,62.2958792 34.6190769,59.9239029 34.6190769,57.3638901 C34.6190769,54.7558771 35.0510726,52.359901 35.9150769,50.1758901 C36.7790812,47.9918792 38.0150689,46.107898 39.6230769,44.5238901 C41.231085,42.9398822 43.1750655,41.7078945 45.4550769,40.8278901 C47.7350883,39.9478857 50.2830628,39.5078901 53.0990769,39.5078901 C54.5550842,39.5078901 55.9230705,39.6278889 57.2030769,39.8678901 C58.4830833,40.1078913 59.6630715,40.435888 60.7430769,40.8518901 C61.8230823,41.2678922 62.8110724,41.7638872 63.7070769,42.3398901 C64.6030814,42.915893 65.4030734,43.5398867 66.1070769,44.2118901 L63.7550769,47.7878901 C63.5310758,48.1238918 63.2630785,48.3878891 62.9510769,48.5798901 C62.6390754,48.7718911 62.2990788,48.8678901 61.9310769,48.8678901 C61.4510745,48.8678901 60.9550795,48.7078917 60.4430769,48.3878901 C59.8030737,48.0038882 59.1990798,47.6718915 58.6310769,47.3918901 C58.0630741,47.1118887 57.4830799,46.883891 56.8910769,46.7078901 C56.299074,46.5318892 55.6750802,46.4038905 55.0190769,46.3238901 C54.3630736,46.2438897 53.627081,46.2038901 52.8110769,46.2038901 C51.2910693,46.2038901 49.923083,46.4718874 48.7070769,47.0078901 C47.4910708,47.5438928 46.4550812,48.2998852 45.5990769,49.2758901 C44.7430726,50.251895 44.0830792,51.4238833 43.6190769,52.7918901 C43.1550746,54.1598969 42.9230769,55.6838817 42.9230769,57.3638901 C42.9230769,59.2198994 43.1790744,60.8678829 43.6910769,62.3078901 C44.2030795,63.7478973 44.9110724,64.9638851 45.8150769,65.9558901 C46.7190814,66.9478951 47.7910707,67.7038875 49.0310769,68.2238901 C50.2710831,68.7438927 51.6270696,69.0038901 53.0990769,69.0038901 Z" id="4G"></path>
                <g id="Page-1" transform="translate(39.853480, 0.000000)">
                    <path d="M0.575765568,17.0478828 L0.000234432234,17.0584322 L0.000234432234,21.594696 L0.600380952,21.58063 C3.27642491,21.4997509 5.74499634,22.5019487 7.60169963,24.3574799 C9.45723077,26.2141832 10.4441905,28.700337 10.3785495,31.3587985 L10.3644835,31.9589451 L14.9007473,31.9589451 L14.9112967,31.3845861 C14.9886593,27.493011 13.5351795,23.8546227 10.8192821,21.1398974 C8.10924542,18.4286886 4.45679121,16.9716923 0.575765568,17.0478828" id="Fill-1"></path>
                    <path d="M0.579164835,8.61043223 L0.000117216117,8.6174652 L0.000117216117,13.1502125 L0.59440293,13.1420073 C5.48817582,13.0822271 10.1275897,14.9377582 13.5749158,18.3839121 C17.0210696,21.8312381 18.8824615,26.4401758 18.8168205,31.3655971 L18.8086154,31.9587106 L23.3425348,31.9587106 L23.3495678,31.379663 C23.4187253,25.2234725 21.0919853,19.4646447 16.7936703,15.1663297 C12.4941832,10.8668425 6.69901832,8.50610989 0.579164835,8.61043223" id="Fill-3"></path>
                    <g id="Group-7" transform="translate(0.000000, 0.138667)">
                        <path d="M22.7667692,9.05374359 C16.8801758,3.16715018 9.00911355,0.007003663 0.581274725,0.03396337 L-0.000117216117,0.0386520147 L-0.000117216117,4.57139927 L0.591824176,4.56553846 C7.77013919,4.52920147 14.5135824,7.23572161 19.5491868,12.2724982 C24.5859634,17.3081026 27.3217875,24.0409963 27.2549744,31.2286886 L27.2491136,31.82063 L31.7818608,31.82063 L31.7865495,31.2392381 C31.8568791,22.8196044 28.6521905,14.940337 22.7667692,9.05374359" id="Fill-5"></path>
                    </g>
                </g>
            </g>
        </g>
    </g>
</svg>