<?xml version="1.0" encoding="UTF-8"?>
<svg width="80px" height="80px" viewBox="0 0 80 80" version="1.1" xmlns="http://www.w3.org/2000/svg" xmlns:xlink="http://www.w3.org/1999/xlink">
    <!-- Generator: Sketch 47.1 (45422) - http://www.bohemiancoding.com/sketch -->
    <title>icon_gift</title>
    <desc>Created with Sketch.</desc>
    <defs></defs>
    <g id="171027---1st-white" stroke="none" stroke-width="1" fill="none" fill-rule="evenodd">
        <g id="icon_gift" fill-rule="nonzero" fill="#FFFFFF">
            <g id="icons8-packaging">
                <path d="M28.125,0 L23.3333333,4.79166667 L31.875,13.3333333 L0,13.3333333 L0,33.3333333 L3.33333333,33.3333333 L3.33333333,80 L76.6666667,80 L76.6666667,33.3333333 L80,33.3333333 L80,13.3333333 L48.125,13.3333333 L56.6666667,4.6875 L51.9791667,0 L40,11.875 L28.125,0 Z M6.66666667,20 L36.6666667,20 L36.6666667,26.6666667 L6.66666667,26.6666667 L6.66666667,20 Z M43.3333333,20 L73.3333333,20 L73.3333333,26.6666667 L43.3333333,26.6666667 L43.3333333,20 Z M10,33.3333333 L36.6666667,33.3333333 L36.6666667,73.3333333 L10,73.3333333 L10,33.3333333 Z M43.3333333,33.3333333 L70,33.3333333 L70,73.3333333 L43.3333333,73.3333333 L43.3333333,33.3333333 Z" id="Shape"></path>
            </g>
        </g>
    </g>
</svg>